<?xml version="1.0" encoding="utf-8"?>
<!-- Generator: Adobe Illustrator 15.0.2, SVG Export Plug-In . SVG Version: 6.00 Build 0)  -->
<!DOCTYPE svg PUBLIC "-//W3C//DTD SVG 1.1//EN" "http://www.w3.org/Graphics/SVG/1.1/DTD/svg11.dtd">
<svg version="1.1" id="Layer_1" xmlns="http://www.w3.org/2000/svg" xmlns:xlink="http://www.w3.org/1999/xlink" x="0px" y="0px"
	 width="319.744px" height="286.729px" viewBox="0 0 319.744 286.729" enable-background="new 0 0 319.744 286.729"
	 xml:space="preserve">
<g>
	<defs>
		<rect id="SVGID_1_" width="319.744" height="286.729"/>
	</defs>
	<clipPath id="SVGID_2_">
		<use xlink:href="#SVGID_1_"  overflow="visible"/>
	</clipPath>
	<g clip-path="url(#SVGID_2_)">
		<defs>
			<rect id="SVGID_3_" width="319.744" height="286.729"/>
		</defs>
		<clipPath id="SVGID_4_">
			<use xlink:href="#SVGID_3_"  overflow="visible"/>
		</clipPath>
		<g clip-path="url(#SVGID_4_)">
			<g>
				<defs>
					<rect id="SVGID_5_" x="310.765" y="199.803" width="8.979" height="8.979"/>
				</defs>
				<clipPath id="SVGID_6_">
					<use xlink:href="#SVGID_5_"  overflow="visible"/>
				</clipPath>
				<path clip-path="url(#SVGID_6_)" fill="#DDDDDD" d="M319.744,204.292c0,2.48-2.01,4.49-4.49,4.49
					c-2.479,0-4.489-2.01-4.489-4.49c0-2.479,2.01-4.489,4.489-4.489C317.734,199.803,319.744,201.814,319.744,204.292"/>
			</g>
		</g>
		<g clip-path="url(#SVGID_4_)">
			<g>
				<defs>
					<rect id="SVGID_7_" x="260.993" y="139.67" width="41.959" height="41.959"/>
				</defs>
				<clipPath id="SVGID_8_">
					<use xlink:href="#SVGID_7_"  overflow="visible"/>
				</clipPath>
				<path clip-path="url(#SVGID_8_)" fill="#DDDDDD" d="M302.952,160.65c0,11.587-9.394,20.979-20.979,20.979
					c-11.587,0-20.979-9.393-20.979-20.979c0-11.586,9.393-20.979,20.979-20.979C293.559,139.671,302.952,149.064,302.952,160.65"/>
			</g>
		</g>
		<g clip-path="url(#SVGID_4_)">
			<g>
				<defs>
					<rect id="SVGID_9_" x="202.744" y="173.83" width="25.588" height="25.59"/>
				</defs>
				<clipPath id="SVGID_10_">
					<use xlink:href="#SVGID_9_"  overflow="visible"/>
				</clipPath>
				<path clip-path="url(#SVGID_10_)" fill="#DDDDDD" d="M228.332,186.625c0,7.066-5.728,12.795-12.794,12.795
					s-12.795-5.729-12.795-12.795s5.729-12.795,12.795-12.795S228.332,179.558,228.332,186.625"/>
			</g>
		</g>
		<g clip-path="url(#SVGID_4_)">
			<g>
				<defs>
					<rect id="SVGID_11_" x="201.69" y="87.854" width="32.703" height="32.704"/>
				</defs>
				<clipPath id="SVGID_12_">
					<use xlink:href="#SVGID_11_"  overflow="visible"/>
				</clipPath>
				<path clip-path="url(#SVGID_12_)" fill="#DDDDDD" d="M234.395,104.206c0,9.031-7.321,16.353-16.352,16.353
					c-9.031,0-16.354-7.322-16.354-16.353c0-9.031,7.322-16.352,16.354-16.352C227.073,87.854,234.395,95.174,234.395,104.206"/>
			</g>
		</g>
		<g clip-path="url(#SVGID_4_)">
			<g>
				<defs>
					<rect id="SVGID_13_" x="216.176" y="6.705" width="42.152" height="42.152"/>
				</defs>
				<clipPath id="SVGID_14_">
					<use xlink:href="#SVGID_13_"  overflow="visible"/>
				</clipPath>
				<path clip-path="url(#SVGID_14_)" fill="#DDDDDD" d="M258.327,27.781c0,11.64-9.436,21.076-21.075,21.076
					c-11.641,0-21.076-9.436-21.076-21.076s9.436-21.076,21.076-21.076C248.892,6.705,258.327,16.141,258.327,27.781"/>
			</g>
		</g>
		<g clip-path="url(#SVGID_4_)">
			<g>
				<defs>
					<rect id="SVGID_15_" x="282.792" y="49.58" width="18.342" height="18.341"/>
				</defs>
				<clipPath id="SVGID_16_">
					<use xlink:href="#SVGID_15_"  overflow="visible"/>
				</clipPath>
				<path clip-path="url(#SVGID_16_)" fill="#DDDDDD" d="M301.134,58.75c0,5.064-4.106,9.171-9.171,9.171
					c-5.065,0-9.171-4.107-9.171-9.171s4.105-9.171,9.171-9.171C297.027,49.58,301.134,53.687,301.134,58.75"/>
			</g>
		</g>
		<g clip-path="url(#SVGID_4_)">
			<g>
				<defs>
					<rect id="SVGID_17_" x="131.441" y="109.392" width="8.979" height="8.98"/>
				</defs>
				<clipPath id="SVGID_18_">
					<use xlink:href="#SVGID_17_"  overflow="visible"/>
				</clipPath>
				<path clip-path="url(#SVGID_18_)" fill="#DDDDDD" d="M140.42,113.881c0,2.48-2.01,4.49-4.489,4.49c-2.48,0-4.49-2.01-4.49-4.49
					c0-2.479,2.01-4.489,4.49-4.489C138.41,109.392,140.42,111.402,140.42,113.881"/>
			</g>
		</g>
		<g clip-path="url(#SVGID_4_)">
			<g>
				<defs>
					<rect id="SVGID_19_" x="172.9" y="177.825" width="8.979" height="8.979"/>
				</defs>
				<clipPath id="SVGID_20_">
					<use xlink:href="#SVGID_19_"  overflow="visible"/>
				</clipPath>
				<path clip-path="url(#SVGID_20_)" fill="#DDDDDD" d="M181.88,182.314c0,2.479-2.01,4.49-4.49,4.49
					c-2.479,0-4.488-2.012-4.488-4.49c0-2.479,2.009-4.489,4.488-4.489C179.87,177.825,181.88,179.834,181.88,182.314"/>
			</g>
		</g>
		<g clip-path="url(#SVGID_4_)">
			<g>
				<defs>
					<rect id="SVGID_21_" x="187.886" width="8.979" height="8.979"/>
				</defs>
				<clipPath id="SVGID_22_">
					<use xlink:href="#SVGID_21_"  overflow="visible"/>
				</clipPath>
				<path clip-path="url(#SVGID_22_)" fill="#DDDDDD" d="M196.865,4.49c0,2.479-2.01,4.489-4.49,4.489
					c-2.479,0-4.49-2.01-4.49-4.489c0-2.48,2.011-4.49,4.49-4.49C194.855,0,196.865,2.01,196.865,4.49"/>
			</g>
		</g>
		<g clip-path="url(#SVGID_4_)">
			<g>
				<defs>
					<rect id="SVGID_23_" x="287.787" y="9.491" width="8.979" height="8.979"/>
				</defs>
				<clipPath id="SVGID_24_">
					<use xlink:href="#SVGID_23_"  overflow="visible"/>
				</clipPath>
				<path clip-path="url(#SVGID_24_)" fill="#DDDDDD" d="M296.767,13.98c0,2.479-2.01,4.49-4.49,4.49
					c-2.479,0-4.489-2.011-4.489-4.49s2.01-4.489,4.489-4.489C294.757,9.491,296.767,11.501,296.767,13.98"/>
			</g>
		</g>
		<g clip-path="url(#SVGID_4_)">
			<g>
				<defs>
					<rect id="SVGID_25_" x="152.42" y="30.099" width="18.342" height="18.341"/>
				</defs>
				<clipPath id="SVGID_26_">
					<use xlink:href="#SVGID_25_"  overflow="visible"/>
				</clipPath>
				<path clip-path="url(#SVGID_26_)" fill="#DDDDDD" d="M170.762,39.27c0,5.064-4.105,9.17-9.17,9.17
					c-5.065,0-9.171-4.106-9.171-9.17c0-5.065,4.106-9.171,9.171-9.171C166.656,30.099,170.762,34.205,170.762,39.27"/>
			</g>
		</g>
		<g clip-path="url(#SVGID_4_)">
			<g>
				<defs>
					<rect id="SVGID_27_" x="168.405" y="115.015" width="18.341" height="18.342"/>
				</defs>
				<clipPath id="SVGID_28_">
					<use xlink:href="#SVGID_27_"  overflow="visible"/>
				</clipPath>
				<path clip-path="url(#SVGID_28_)" fill="#DDDDDD" d="M186.746,124.186c0,5.064-4.106,9.171-9.17,9.171
					c-5.065,0-9.171-4.107-9.171-9.171s4.105-9.171,9.171-9.171C182.64,115.015,186.746,119.122,186.746,124.186"/>
			</g>
		</g>
		<g clip-path="url(#SVGID_4_)">
			<g>
				<defs>
					<rect id="SVGID_29_" x="261.312" y="222.91" width="18.343" height="18.341"/>
				</defs>
				<clipPath id="SVGID_30_">
					<use xlink:href="#SVGID_29_"  overflow="visible"/>
				</clipPath>
				<path clip-path="url(#SVGID_30_)" fill="#DDDDDD" d="M279.654,232.08c0,5.065-4.105,9.171-9.171,9.171
					c-5.064,0-9.17-4.105-9.17-9.171c0-5.064,4.105-9.17,9.17-9.17C275.549,222.91,279.654,227.015,279.654,232.08"/>
			</g>
		</g>
		<path clip-path="url(#SVGID_4_)" fill="#27A6D8" d="M147.681,154.505c5.675,12.421,0.207,27.09-12.213,32.765
			c-12.42,5.676-27.09,0.207-32.764-12.213c-5.675-12.421-0.207-27.09,12.213-32.765
			C127.337,136.617,142.006,142.085,147.681,154.505"/>
		<path clip-path="url(#SVGID_4_)" fill="#2873E0" d="M101.533,104.587l-41.844,55.915c-3.631,4.853-11.105,10.902-16.607,13.442
			L6.395,190.882c-5.503,2.54-7.926,9.122-5.386,14.624l11.086,24.013c2.51,5.435,8.96,7.863,14.421,5.474l7.137,51.736
			l21.344-9.854l-7.794-51.428l16.202-7.48c5.503-2.54,14.942-4.151,20.977-3.579l71.139,6.737c6.034,0.571,8.891-3.463,6.35-8.967
			l-49.116-106.388C110.214,100.268,105.165,99.734,101.533,104.587"/>
		<path clip-path="url(#SVGID_4_)" fill="#3E4049" d="M155.668,199.202l-43.005-93.39c-2.54-5.503-7.644-6.01-11.276-1.157
			l-1.658,2.169l52.118,114.064l3.482,0.324c5.62,0.532,8.502-2.941,6.804-7.86L155.668,199.202z"/>
		<path clip-path="url(#SVGID_4_)" fill="#26CEDB" d="M59.667,160.513c-2.761,3.689-7.547,7.978-12.212,10.989l20.47,44.8
			c5.323-1.569,11.796-2.344,16.435-1.904l67.487,6.49L99.73,106.824L59.667,160.513z"/>
		<polygon clip-path="url(#SVGID_4_)" fill="#195DAF" points="26.527,235.185 33.642,286.705 54.981,276.837 47.231,225.725 		"/>
		<g clip-path="url(#SVGID_4_)">
			<g>
				<defs>
					<rect id="SVGID_31_" x="0.027" y="101.295" width="147.461" height="117.035"/>
				</defs>
				<clipPath id="SVGID_32_">
					<use xlink:href="#SVGID_31_"  overflow="visible"/>
				</clipPath>
				<path clip-path="url(#SVGID_32_)" fill="#CCCCCC" d="M128.735,140.383l-15.963-34.577c-2.541-5.503-7.598-6.053-11.23-1.2
					l-41.848,55.906c-0.205,0.274-0.428,0.548-0.657,0.829c-0.069,0.084-0.143,0.169-0.215,0.254
					c-0.168,0.204-0.344,0.408-0.525,0.614c-0.08,0.092-0.16,0.183-0.242,0.274c-0.215,0.24-0.437,0.481-0.664,0.724
					c-0.046,0.049-0.089,0.097-0.135,0.145c-0.267,0.281-0.544,0.563-0.826,0.845c-0.104,0.104-0.211,0.206-0.317,0.312
					c-0.188,0.186-0.379,0.37-0.573,0.555c-0.126,0.119-0.251,0.238-0.378,0.356c-0.191,0.179-0.387,0.356-0.583,0.534
					c-0.123,0.112-0.245,0.225-0.37,0.336c-0.287,0.255-0.579,0.509-0.873,0.76c-0.166,0.143-0.335,0.282-0.503,0.423
					c-0.154,0.129-0.309,0.258-0.465,0.386c-0.185,0.152-0.371,0.304-0.558,0.452c-0.135,0.108-0.27,0.214-0.406,0.32
					c-0.705,0.554-1.416,1.088-2.131,1.598c-0.105,0.076-0.21,0.151-0.316,0.226c-0.221,0.156-0.443,0.31-0.664,0.46
					c-0.104,0.07-0.208,0.141-0.312,0.21c-0.228,0.152-0.456,0.304-0.682,0.45c-1.465,0.948-2.898,1.762-4.217,2.37L6.396,190.882
					c-5.503,2.54-7.894,9.193-5.354,14.696l5.886,12.751l140.56-64.225C143.773,146.466,136.592,141.518,128.735,140.383"/>
			</g>
		</g>
		<path clip-path="url(#SVGID_4_)" fill="#E6E6E6" d="M215.335,123.15c0.789,1.726,0.029,3.763-1.695,4.551l-40.095,18.32
			c-1.726,0.788-3.763,0.028-4.551-1.696l-0.052-0.114c-0.788-1.725-0.029-3.762,1.697-4.551l40.093-18.32
			c1.726-0.788,3.763-0.029,4.552,1.697L215.335,123.15z"/>
		<path clip-path="url(#SVGID_4_)" fill="#E6E6E6" d="M158.871,130.33l28.47-33.399c1.229-1.444,1.057-3.612-0.386-4.842
			c-1.444-1.231-3.612-1.059-4.844,0.386l-28.468,33.399c-1.231,1.443-1.058,3.611,0.386,4.842
			C155.473,131.946,157.641,131.772,158.871,130.33"/>
		<path clip-path="url(#SVGID_4_)" fill="#E6E6E6" d="M217.36,162.632l-43.884-0.339c-1.898-0.016-3.447,1.511-3.462,3.407
			s1.512,3.446,3.407,3.461l43.886,0.34c1.896,0.015,3.446-1.511,3.461-3.408C220.783,164.197,219.257,162.647,217.36,162.632"/>
		<g clip-path="url(#SVGID_4_)">
			<g>
				<defs>
					<rect id="SVGID_33_" x="27.48" y="236.38" width="14.229" height="11.971"/>
				</defs>
				<clipPath id="SVGID_34_">
					<use xlink:href="#SVGID_33_"  overflow="visible"/>
				</clipPath>
				<polygon clip-path="url(#SVGID_34_)" fill="#B9C0C6" points="40.753,236.38 27.48,242.089 28.345,248.351 41.709,242.874 				
					"/>
			</g>
		</g>
		<g clip-path="url(#SVGID_4_)">
			<g>
				<defs>
					<rect id="SVGID_35_" x="29.478" y="250.367" width="14.229" height="11.971"/>
				</defs>
				<clipPath id="SVGID_36_">
					<use xlink:href="#SVGID_35_"  overflow="visible"/>
				</clipPath>
				<polygon clip-path="url(#SVGID_36_)" fill="#B9C0C6" points="42.751,250.367 29.479,256.076 30.343,262.337 43.708,256.86 				
					"/>
			</g>
		</g>
		<g clip-path="url(#SVGID_4_)">
			<g>
				<defs>
					<rect id="SVGID_37_" x="31.476" y="264.353" width="14.229" height="11.971"/>
				</defs>
				<clipPath id="SVGID_38_">
					<use xlink:href="#SVGID_37_"  overflow="visible"/>
				</clipPath>
				<polygon clip-path="url(#SVGID_38_)" fill="#B9C0C6" points="44.75,264.353 31.477,270.061 32.341,276.324 45.706,270.846 				
					"/>
			</g>
		</g>
	</g>
</g>
</svg>
