<?xml version="1.0" encoding="utf-8"?>
<!-- Generator: Adobe Illustrator 15.0.2, SVG Export Plug-In . SVG Version: 6.00 Build 0)  -->
<!DOCTYPE svg PUBLIC "-//W3C//DTD SVG 1.1//EN" "http://www.w3.org/Graphics/SVG/1.1/DTD/svg11.dtd">
<svg version="1.1" id="Layer_1" xmlns="http://www.w3.org/2000/svg" xmlns:xlink="http://www.w3.org/1999/xlink" x="0px" y="0px"
	 width="710.09px" height="417.567px" viewBox="0 0 710.09 417.567" enable-background="new 0 0 710.09 417.567"
	 xml:space="preserve">
<g>
	<defs>
		<rect id="SVGID_1_" width="710.09" height="417.567"/>
	</defs>
	<clipPath id="SVGID_2_">
		<use xlink:href="#SVGID_1_"  overflow="visible"/>
	</clipPath>
	<g clip-path="url(#SVGID_2_)">
		<defs>
			<rect id="SVGID_3_" width="710.09" height="417.567"/>
		</defs>
		<clipPath id="SVGID_4_">
			<use xlink:href="#SVGID_3_"  overflow="visible"/>
		</clipPath>
		<path clip-path="url(#SVGID_4_)" fill="#4D5A68" d="M572.028,342.963c0,10.224-8.276,18.515-18.499,18.515H18.506
			C8.284,361.478,0,353.187,0,342.963V18.513C0,8.291,8.284,0,18.506,0h535.023c10.223,0,18.499,8.291,18.499,18.513V342.963z"/>
		<rect x="27.362" y="20.376" clip-path="url(#SVGID_4_)" fill="#FFFFFF" width="517.305" height="299.507"/>
		<rect x="204.311" y="344.667" clip-path="url(#SVGID_4_)" fill="#4D5A68" width="163.407" height="58.63"/>
		<path clip-path="url(#SVGID_4_)" fill="#4D5A68" d="M428.501,410.432c0,3.92-3.199,7.135-7.142,7.135H150.675
			c-3.962,0-7.148-3.215-7.148-7.135c0-3.948,3.186-7.135,7.148-7.135h270.684C425.302,403.297,428.501,406.484,428.501,410.432"/>
		<path clip-path="url(#SVGID_4_)" fill="#75BEFF" d="M294.302,340.497c0,4.584-3.71,8.292-8.292,8.292
			c-4.568,0-8.284-3.708-8.284-8.292c0-4.568,3.716-8.278,8.284-8.278C290.592,332.218,294.302,335.928,294.302,340.497"/>
		<g opacity="0.1" clip-path="url(#SVGID_4_)">
			<g>
				<defs>
					<rect id="SVGID_5_" x="249.008" y="178.458" width="262.676" height="19.995"/>
				</defs>
				<clipPath id="SVGID_6_">
					<use xlink:href="#SVGID_5_"  overflow="visible"/>
				</clipPath>
				<rect x="249.008" y="178.458" clip-path="url(#SVGID_6_)" fill="#0E1821" width="262.676" height="19.995"/>
			</g>
		</g>
		<g opacity="0.1" clip-path="url(#SVGID_4_)">
			<g>
				<defs>
					<rect id="SVGID_7_" x="249.008" y="141.795" width="262.676" height="19.996"/>
				</defs>
				<clipPath id="SVGID_8_">
					<use xlink:href="#SVGID_7_"  overflow="visible"/>
				</clipPath>
				<rect x="249.008" y="141.795" clip-path="url(#SVGID_8_)" fill="#0E1821" width="262.676" height="19.996"/>
			</g>
		</g>
		<g opacity="0.1" clip-path="url(#SVGID_4_)">
			<g>
				<defs>
					<rect id="SVGID_9_" x="249.008" y="105.142" width="262.676" height="19.991"/>
				</defs>
				<clipPath id="SVGID_10_">
					<use xlink:href="#SVGID_9_"  overflow="visible"/>
				</clipPath>
				<rect x="249.008" y="105.142" clip-path="url(#SVGID_10_)" fill="#0E1821" width="262.676" height="19.991"/>
			</g>
		</g>
		<g opacity="0.1" clip-path="url(#SVGID_4_)">
			<g>
				<defs>
					<rect id="SVGID_11_" x="57.36" y="103.073" width="173.306" height="166.646"/>
				</defs>
				<clipPath id="SVGID_12_">
					<use xlink:href="#SVGID_11_"  overflow="visible"/>
				</clipPath>
				<rect x="57.359" y="103.073" clip-path="url(#SVGID_12_)" fill="#0E1821" width="173.307" height="166.646"/>
			</g>
		</g>
		<rect x="57.359" y="45.094" clip-path="url(#SVGID_4_)" fill="#4D5A68" width="460.521" height="37.706"/>
		<path clip-path="url(#SVGID_4_)" fill="#75BEFF" d="M504.119,270.225h-94.652c-2.901,0-5.275-2.374-5.275-5.275v-31.156
			c0-2.901,2.374-5.274,5.275-5.274h94.652c2.9,0,5.274,2.373,5.274,5.274v31.156C509.394,267.851,507.02,270.225,504.119,270.225"
			/>
		<path clip-path="url(#SVGID_4_)" fill="#4D5A68" d="M433.039,241.993h7.43c1.822,0,3.105,0.456,3.954,1.304
			c0.579,0.58,0.933,1.347,0.933,2.34v0.041c0,1.677-0.953,2.67-2.237,3.229c1.761,0.579,2.878,1.572,2.878,3.539v0.041
			c0,2.483-2.029,3.995-5.485,3.995h-7.472V241.993z M439.476,247.768c1.222,0,1.905-0.414,1.905-1.264v-0.041
			c0-0.786-0.622-1.242-1.823-1.242h-2.606v2.547H439.476z M440.056,253.252c1.222,0,1.925-0.476,1.925-1.325v-0.041
			c0-0.785-0.621-1.304-1.967-1.304h-3.062v2.67H440.056z"/>
		<path clip-path="url(#SVGID_4_)" fill="#4D5A68" d="M449.301,250.127v-8.134h4.078v8.051c0,2.091,1.055,3.084,2.669,3.084
			c1.615,0,2.67-0.952,2.67-2.98v-8.154h4.077v8.029c0,4.679-2.669,6.728-6.789,6.728
			C451.888,256.75,449.301,254.661,449.301,250.127"/>
		<polygon clip-path="url(#SVGID_4_)" fill="#4D5A68" points="471.006,251.058 465.499,241.993 470.074,241.993 473.055,247.27 
			476.056,241.993 480.548,241.993 475.041,250.997 475.041,256.482 471.006,256.482 		"/>
		<polygon clip-path="url(#SVGID_4_)" fill="#4D5A68" points="151.05,246.875 149.203,250.028 137.85,250.028 135.99,246.875 		"/>
		<rect x="130.416" y="231.833" clip-path="url(#SVGID_4_)" fill="#FFFFFF" width="26.216" height="15.042"/>
		<rect x="130.416" y="234.017" clip-path="url(#SVGID_4_)" fill="#4D5A68" width="26.216" height="2.646"/>
		<rect x="130.416" y="238.035" clip-path="url(#SVGID_4_)" fill="#4D5A68" width="26.216" height="2.642"/>
		<rect x="130.416" y="242.045" clip-path="url(#SVGID_4_)" fill="#4D5A68" width="26.216" height="2.647"/>
		<polygon clip-path="url(#SVGID_4_)" fill="#9CAAB8" points="161.223,223.524 156.623,231.833 130.389,231.833 125.777,223.524 		
			"/>
		<path clip-path="url(#SVGID_4_)" fill="#C0DCDF" d="M104.549,161.178c0,7.508,2.232,14.404,6.05,20.798l11.657,19.505
			c1.888,3.158,3.491,8.432,3.576,11.807l0.012,0.515h35.281l0.012-0.5c0.085-3.376,1.682-8.583,3.576-11.741l11.657-19.501
			c3.823-6.394,6.044-13.363,6.044-20.87c0-0.09-0.007-0.388-0.007-0.388h-77.852C104.555,160.803,104.549,161.092,104.549,161.178"
			/>
		<path clip-path="url(#SVGID_4_)" fill="#FFFFFF" d="M143.484,122.135c-21.427,0-38.791,16.668-38.929,38.668h77.851
			C182.263,138.803,164.908,122.135,143.484,122.135"/>
		<rect x="125.782" y="208.964" clip-path="url(#SVGID_4_)" fill="#FFFFFF" width="35.441" height="14.563"/>
		<path clip-path="url(#SVGID_4_)" fill="#4D5A68" d="M710.091,392.773c0,12.013-9.742,21.749-21.749,21.749h-58.01
			c-12.012,0-21.746-9.736-21.746-21.749v-147.91c0-12.01,9.734-21.747,21.746-21.747h58.01c12.007,0,21.749,9.737,21.749,21.747
			V392.773z"/>
		<rect x="617.905" y="248.235" clip-path="url(#SVGID_4_)" fill="#FFFFFF" width="82.866" height="141.166"/>
		<path clip-path="url(#SVGID_4_)" fill="#75BEFF" d="M665.936,401.866c0,3.648-2.958,6.599-6.603,6.599
			c-3.647,0-6.605-2.95-6.605-6.599c0-3.647,2.958-6.603,6.605-6.603C662.978,395.263,665.936,398.218,665.936,401.866"/>
		<g opacity="0.1" clip-path="url(#SVGID_4_)">
			<g>
				<defs>
					<rect id="SVGID_13_" x="626.003" y="340.354" width="66.637" height="7.688"/>
				</defs>
				<clipPath id="SVGID_14_">
					<use xlink:href="#SVGID_13_"  overflow="visible"/>
				</clipPath>
				<rect x="626.003" y="340.354" clip-path="url(#SVGID_14_)" fill="#0E1821" width="66.637" height="7.688"/>
			</g>
		</g>
		<g opacity="0.1" clip-path="url(#SVGID_4_)">
			<g>
				<defs>
					<rect id="SVGID_15_" x="626.003" y="326.261" width="66.637" height="7.687"/>
				</defs>
				<clipPath id="SVGID_16_">
					<use xlink:href="#SVGID_15_"  overflow="visible"/>
				</clipPath>
				<rect x="626.003" y="326.262" clip-path="url(#SVGID_16_)" fill="#0E1821" width="66.637" height="7.686"/>
			</g>
		</g>
		<g opacity="0.1" clip-path="url(#SVGID_4_)">
			<g>
				<defs>
					<rect id="SVGID_17_" x="626.003" y="255.777" width="66.637" height="64.075"/>
				</defs>
				<clipPath id="SVGID_18_">
					<use xlink:href="#SVGID_17_"  overflow="visible"/>
				</clipPath>
				<rect x="626.003" y="255.777" clip-path="url(#SVGID_18_)" fill="#0E1821" width="66.637" height="64.076"/>
			</g>
		</g>
		<path clip-path="url(#SVGID_4_)" fill="#75BEFF" d="M688.316,381.338h-59.183c-1.815,0-3.299-1.484-3.299-3.298v-19.482
			c0-1.813,1.483-3.298,3.299-3.298h59.183c1.814,0,3.298,1.484,3.298,3.298v19.482
			C691.614,379.854,690.131,381.338,688.316,381.338"/>
		<path clip-path="url(#SVGID_4_)" fill="#4D5A68" d="M643.872,363.686h4.646c1.14,0,1.942,0.284,2.472,0.815
			c0.363,0.361,0.583,0.841,0.583,1.463v0.024c0,1.048-0.595,1.67-1.397,2.02c1.1,0.362,1.799,0.983,1.799,2.213v0.025
			c0,1.554-1.269,2.498-3.43,2.498h-4.672V363.686z M647.897,367.296c0.763,0,1.19-0.26,1.19-0.789v-0.026
			c0-0.492-0.389-0.776-1.14-0.776h-1.631v1.592H647.897z M648.26,370.726c0.764,0,1.203-0.298,1.203-0.828v-0.026
			c0-0.491-0.389-0.815-1.229-0.815h-1.916v1.67H648.26z"/>
		<path clip-path="url(#SVGID_4_)" fill="#4D5A68" d="M654.04,368.772v-5.086h2.55v5.033c0,1.308,0.66,1.929,1.67,1.929
			s1.668-0.596,1.668-1.863v-5.099h2.551v5.021c0,2.925-1.67,4.206-4.245,4.206S654.04,371.606,654.04,368.772"/>
		<polygon clip-path="url(#SVGID_4_)" fill="#4D5A68" points="667.611,369.354 664.169,363.686 667.029,363.686 668.893,366.986 
			670.77,363.686 673.578,363.686 670.136,369.315 670.136,372.745 667.611,372.745 		"/>
		<polygon clip-path="url(#SVGID_4_)" fill="#4D5A68" points="661.546,310.419 660.873,311.568 656.735,311.568 656.057,310.419 		
			"/>
		<rect x="654.025" y="304.936" clip-path="url(#SVGID_4_)" fill="#FFFFFF" width="9.556" height="5.482"/>
		<rect x="654.025" y="305.732" clip-path="url(#SVGID_4_)" fill="#4D5A68" width="9.556" height="0.965"/>
		<rect x="654.025" y="307.197" clip-path="url(#SVGID_4_)" fill="#4D5A68" width="9.556" height="0.963"/>
		<rect x="654.025" y="308.659" clip-path="url(#SVGID_4_)" fill="#4D5A68" width="9.556" height="0.965"/>
		<polygon clip-path="url(#SVGID_4_)" fill="#9CAAB8" points="665.254,301.908 663.577,304.937 654.016,304.937 652.334,301.908 		
			"/>
		<path clip-path="url(#SVGID_4_)" fill="#C0DCDF" d="M644.597,279.061c0,2.736,0.814,5.312,2.205,7.643l4.249,7.139
			c0.688,1.151,1.273,3.308,1.303,4.539l0.006,0.422h12.859l0.004-0.402c0.031-1.229,0.613-3.237,1.304-4.389l4.249-7.163
			c1.394-2.33,2.202-5.019,2.202-7.756c0-0.033-0.002-0.29-0.002-0.29h-28.377C644.599,278.803,644.597,279.031,644.597,279.061"/>
		<path clip-path="url(#SVGID_4_)" fill="#FFFFFF" d="M658.789,264.708c-7.811,0-14.14,6.095-14.189,14.095h28.376
			C672.923,270.803,666.597,264.708,658.789,264.708"/>
		<rect x="652.336" y="296.601" clip-path="url(#SVGID_4_)" fill="#FFFFFF" width="12.918" height="5.308"/>
	</g>
</g>
</svg>
