<?xml version="1.0" encoding="utf-8"?>
<!-- Generator: Adobe Illustrator 15.0.2, SVG Export Plug-In . SVG Version: 6.00 Build 0)  -->
<!DOCTYPE svg PUBLIC "-//W3C//DTD SVG 1.1//EN" "http://www.w3.org/Graphics/SVG/1.1/DTD/svg11.dtd">
<svg version="1.1" id="Layer_1" xmlns="http://www.w3.org/2000/svg" xmlns:xlink="http://www.w3.org/1999/xlink" x="0px" y="0px"
	 width="39.847px" height="24.042px" viewBox="0 0 39.847 24.042" enable-background="new 0 0 39.847 24.042" xml:space="preserve">
<g>
	<defs>
		<rect id="SVGID_1_" width="39.847" height="24.042"/>
	</defs>
	<clipPath id="SVGID_2_">
		<use xlink:href="#SVGID_1_"  overflow="visible"/>
	</clipPath>
	<g clip-path="url(#SVGID_2_)">
		<defs>
			<rect id="SVGID_3_" y="0" width="39.847" height="24.041"/>
		</defs>
		<clipPath id="SVGID_4_">
			<use xlink:href="#SVGID_3_"  overflow="visible"/>
		</clipPath>
		<path clip-path="url(#SVGID_4_)" fill="#EAE8E8" d="M39.847,23.353c0,0.367-0.295,0.661-0.66,0.662L0.688,24.042
			c-0.365,0-0.661-0.297-0.661-0.662L0.011,0.713c0.001-0.365,0.294-0.659,0.662-0.662l38.496-0.026
			c0.365,0,0.662,0.295,0.662,0.661L39.847,23.353z"/>
		<g clip-path="url(#SVGID_4_)">
			<defs>
				<rect id="SVGID_5_" x="18.56" y="9.62" width="21.054" height="13.691"/>
			</defs>
			<clipPath id="SVGID_6_">
				<use xlink:href="#SVGID_5_"  overflow="visible"/>
			</clipPath>
			<g clip-path="url(#SVGID_6_)">
				<defs>
					<path id="SVGID_7_" d="M29.453,15.901c5.812,3.765,10.356,7.074,10.155,7.387c-0.205,0.312-5.076-2.488-10.89-6.256
						c-5.808-3.768-10.354-7.075-10.152-7.388C18.77,9.332,23.643,12.133,29.453,15.901"/>
				</defs>
				<clipPath id="SVGID_8_">
					<use xlink:href="#SVGID_7_"  overflow="visible"/>
				</clipPath>
				
					<radialGradient id="SVGID_9_" cx="4.882812e-04" cy="24.0415" r="1" gradientTransform="matrix(0.3671 -0.5658 -10.5126 -6.8173 281.8236 180.3627)" gradientUnits="userSpaceOnUse">
					<stop  offset="0" style="stop-color:#B3B3B3"/>
					<stop  offset="1" style="stop-color:#FFFFFF"/>
				</radialGradient>
				<polygon clip-path="url(#SVGID_8_)" fill="url(#SVGID_9_)" points="11.85,19.375 24.715,-0.458 46.325,13.557 33.46,33.389 				
					"/>
			</g>
		</g>
		<g clip-path="url(#SVGID_4_)">
			<defs>
				<rect id="SVGID_10_" x="0.333" y="9.553" width="21.034" height="13.719"/>
			</defs>
			<clipPath id="SVGID_11_">
				<use xlink:href="#SVGID_10_"  overflow="visible"/>
			</clipPath>
			<g clip-path="url(#SVGID_11_)">
				<defs>
					<path id="SVGID_12_" d="M11.218,16.977c5.803-3.773,10.344-7.087,10.143-7.399c-0.201-0.314-5.073,2.494-10.877,6.268
						c-5.805,3.775-10.346,7.089-10.144,7.403C0.544,23.559,5.413,20.753,11.218,16.977"/>
				</defs>
				<clipPath id="SVGID_13_">
					<use xlink:href="#SVGID_12_"  overflow="visible"/>
				</clipPath>
				
					<radialGradient id="SVGID_14_" cx="-0.0059" cy="24.0415" r="1.0003" gradientTransform="matrix(0.3671 0.566 -10.5064 6.8335 263.4412 -147.8754)" gradientUnits="userSpaceOnUse">
					<stop  offset="0" style="stop-color:#B3B3B3"/>
					<stop  offset="1" style="stop-color:#FFFFFF"/>
				</radialGradient>
				<polygon clip-path="url(#SVGID_13_)" fill="url(#SVGID_14_)" points="-6.385,13.505 6.495,33.36 28.084,19.318 15.205,-0.537 
									"/>
			</g>
		</g>
		<path clip-path="url(#SVGID_4_)" fill="#F9F7F7" d="M39.698,23.234l-8.159-5.362c-0.636-0.413-1.645-1.09-2.276-1.501
			l-8.194-5.364c-0.634-0.412-1.658-0.412-2.291,0.003l-8.195,5.375c-0.63,0.412-1.661,1.09-2.292,1.503l-8.175,5.375
			c-0.028,0.017-0.056,0.035-0.055,0.052L0.06,23.352c0,0.365,0.257,0.646,0.619,0.646l17.939-0.011l2.645-0.003l17.938-0.012
			c0.362,0.001,0.491-0.284,0.491-0.648l-0.001-0.037C39.692,23.27,39.726,23.251,39.698,23.234"/>
		<path clip-path="url(#SVGID_4_)" fill="#989899" d="M39.185,0L21.245,0.012l-2.644,0.004L0.663,0.027
			C0.3,0.027,0.002,0.305,0,0.668v0.005l0.001,0.001v0.01L0,0.724v0.005v0.003l0.001,0.024l0.001,0.001L0.001,0.762L0,0.768
			c0.026,0.019,0.052,0.038,0.079,0.058l8.205,5.852c0.631,0.45,1.666,1.187,2.298,1.638l8.203,5.853
			c0.632,0.449,1.664,0.448,2.296-0.001l8.198-5.863c0.631-0.452,1.662-1.19,2.295-1.642l8.194-5.863
			c0.027-0.02,0.052-0.039,0.077-0.058V0.729l-0.001-0.005l0.001-0.011v-0.01V0.691V0.685V0.68V0.64C39.846,0.277,39.547,0,39.185,0
			"/>
		<path clip-path="url(#SVGID_4_)" fill="#F9F7F7" d="M39.186,0.048l-0.022-0.001h-0.021l-0.023,0.001l-0.021-0.001h-0.021h-0.022
			h-0.021h-0.022h-0.022h-0.021l-0.022,0.001L21.245,0.059V0.058l-0.003,0.001H21.24h-0.002h-0.003l-0.001,0.001h-0.002
			l-0.001-0.001v0.002l-0.004-0.001l-2.609,0.001h-0.002h-0.002V0.061l-0.002,0.002H18.61l-0.001-0.001h-0.002h-0.003l-0.001,0.002
			l-0.001-0.002L0.901,0.073L0.879,0.074L0.858,0.073L0.837,0.074L0.814,0.072L0.792,0.074L0.771,0.073H0.749H0.729L0.707,0.074
			L0.685,0.073H0.663C0.3,0.074,0.044,0.306,0.043,0.669v0.038C0.044,0.723,0.072,0.74,0.101,0.758l8.194,5.365
			c0.631,0.411,1.66,1.087,2.29,1.5l8.203,5.362c0.633,0.411,1.662,0.41,2.294-0.004l8.195-5.372
			c0.631-0.414,1.662-1.09,2.296-1.505l8.11-5.374c0.027-0.018-0.009-0.036-0.007-0.052l-0.001-0.038
			C39.675,0.279,39.547,0.046,39.186,0.048"/>
		<g clip-path="url(#SVGID_4_)">
			<defs>
				<rect id="SVGID_15_" x="0.011" y="0.025" width="39.836" height="24.017"/>
			</defs>
			<clipPath id="SVGID_16_">
				<use xlink:href="#SVGID_15_"  overflow="visible"/>
			</clipPath>
		</g>
	</g>
</g>
</svg>
