<?xml version="1.0" encoding="utf-8"?>
<!-- Generator: Adobe Illustrator 18.1.1, SVG Export Plug-In . SVG Version: 6.00 Build 0)  -->
<svg version="1.1" id="Layer_1" xmlns="http://www.w3.org/2000/svg" xmlns:xlink="http://www.w3.org/1999/xlink" x="0px" y="0px"
	 viewBox="0 0 331 297" enable-background="new 0 0 331 297" xml:space="preserve">
<circle fill="#28A5D6" cx="129.3" cy="170.4" r="24.7"/>
<g>
	<path fill="#4170B6" d="M105.7,110.2l-41.8,55.9c-3.6,4.9-11.1,10.9-16.6,13.4l-36.7,16.9c-5.5,2.5-7.9,9.1-5.4,14.6l11.1,24
		c2.5,5.4,9,7.9,14.4,5.5l7.1,51.7l21.3-9.9L51.3,231l16.2-7.5c5.5-2.5,14.9-4.2,21-3.6l71.1,6.7c6,0.6,8.9-3.5,6.4-9l-49.1-106.4
		C114.4,105.9,109.3,105.3,105.7,110.2z"/>
</g>
<path fill="#3E414A" d="M159.8,204.8l-43-93.4c-2.5-5.5-7.6-6-11.3-1.2l-1.7,2.2L156,226.5l3.5,0.3c5.6,0.5,8.5-2.9,6.8-7.9
	L159.8,204.8z"/>
<path fill="#42C2D1" d="M63.8,166.1c-2.8,3.7-7.5,8-12.2,11l20.5,44.8c5.3-1.6,11.8-2.3,16.4-1.9l67.5,6.5l-52.1-114.1L63.8,166.1z"
	/>
<polygon fill="#215FAB" points="30.7,240.8 37.8,292.3 59.1,282.4 51.4,231.3 "/>
<path fill="#3564AE" d="M51.6,177.1c3.1-2,6.3-4.6,8.9-7.2c-0.7,0.7-1.4,1.3-2.1,2c0,0,0,0,0,0c0,0-0.1,0-0.1,0.1
	c-1.8,1.6-3.8,3.2-5.8,4.5c0,0,0,0,0,0c-0.1,0.1-0.2,0.1-0.3,0.2c-1,0.7-1.9,1.3-2.9,1.8c0,0,0,0,0,0c-0.3,0.2-0.7,0.4-1,0.5
	c-0.3,0.2-0.7,0.3-1,0.5l-36.7,16.9c-5.5,2.5-7.9,9.2-5.4,14.7l5.9,12.8l51.2-23.4L51.6,177.1z"/>
<path fill="#303238" d="M116.9,111.4c-2.5-5.5-7.6-6.1-11.2-1.2l-1.8,2.3l26.1,57l11.4-5.2l-8.5-18.4c0,0,0,0,0,0L116.9,111.4z"/>
<path fill="#1EAEB9" d="M63.8,166.1c-0.2,0.3-0.4,0.5-0.7,0.8c-0.1,0.1-0.1,0.2-0.2,0.3c-0.2,0.2-0.3,0.4-0.5,0.6c0,0,0,0-0.1,0.1
	c-0.1,0.1-0.1,0.1-0.2,0.2c0,0,0,0,0,0c-0.2,0.2-0.4,0.5-0.7,0.7c0,0,0,0,0,0c-0.3,0.3-0.6,0.6-0.9,0.9c0,0-0.1,0.1-0.1,0.1
	c-2.6,2.6-5.7,5.2-8.9,7.2l10.7,23.4l67.7-30.9l-26.1-57L63.8,166.1z"/>
<polygon fill="#1F3B6F" points="44.9,242 31.6,247.7 32.5,253.9 45.9,248.5 "/>
<polygon fill="#1F3B6F" points="46.9,256 33.6,261.7 34.5,267.9 47.8,262.4 "/>
<polygon fill="#1F3B6F" points="48.9,269.9 35.6,275.6 36.5,281.9 49.8,276.4 "/>
<circle fill="#DDDDDC" cx="319.4" cy="209.9" r="4.5"/>
<circle fill="#DDDDDC" cx="286.1" cy="166.2" r="21"/>
<circle fill="#DDDDDC" cx="219.7" cy="192.2" r="12.8"/>
<circle fill="#DDDDDC" cx="222.2" cy="109.8" r="16.4"/>
<circle fill="#DDDDDC" cx="241.4" cy="33.4" r="21.1"/>
<circle fill="#DDDDDC" cx="296.1" cy="64.3" r="9.2"/>
<circle fill="#DDDDDC" cx="140.1" cy="119.5" r="4.5"/>
<circle fill="#DDDDDC" cx="181.5" cy="187.9" r="4.5"/>
<circle fill="#DDDDDC" cx="196.5" cy="10.1" r="4.5"/>
<circle fill="#DDDDDC" cx="296.4" cy="19.6" r="4.5"/>
<circle fill="#DDDDDC" cx="165.7" cy="44.9" r="9.2"/>
<circle fill="#DDDDDC" cx="181.7" cy="129.8" r="9.2"/>
<circle fill="#DDDDDC" cx="274.6" cy="237.7" r="9.2"/>
<g>
	<path fill="#E5E5E4" d="M219.5,128.7c0.8,1.7,0,3.8-1.7,4.6l-40.1,18.3c-1.7,0.8-3.8,0-4.6-1.7l-0.1-0.1c-0.8-1.7,0-3.8,1.7-4.6
		l40.1-18.3c1.7-0.8,3.8,0,4.6,1.7L219.5,128.7z"/>
	<g>
		<path fill="#E5E5E4" d="M163,135.9l28.5-33.4c1.2-1.4,1.1-3.6-0.4-4.8c-1.4-1.2-3.6-1.1-4.8,0.4l-28.5,33.4
			c-1.2,1.4-1.1,3.6,0.4,4.8C159.6,137.5,161.8,137.4,163,135.9z"/>
		<path fill="#E5E5E4" d="M221.5,168.2l-43.9-0.3c-1.9,0-3.4,1.5-3.5,3.4c0,1.9,1.5,3.4,3.4,3.5l43.9,0.3c1.9,0,3.4-1.5,3.5-3.4
			C224.9,169.8,223.4,168.2,221.5,168.2z"/>
	</g>
</g>
</svg>
