<?xml version="1.0" encoding="utf-8"?>
<!-- Generator: Adobe Illustrator 18.1.1, SVG Export Plug-In . SVG Version: 6.00 Build 0)  -->
<svg version="1.1" id="_x2014_ÎÓÈ_x5F_2" xmlns="http://www.w3.org/2000/svg" xmlns:xlink="http://www.w3.org/1999/xlink"
	 x="0px" y="0px" viewBox="0 0 124.6 149.5" enable-background="new 0 0 124.6 149.5" xml:space="preserve">
<g>
	<path fill-rule="evenodd" clip-rule="evenodd" fill="#9C9C95" d="M3.6,0c34.6,0,69.2,0,103.9,0c5.4,1.3,3.6,14.2,3.6,21
		c0,8,0,14.9,0,20.8c-3.3,0-6.7,0-10,0c0-10.6,0-21.2,0-31.8c-29.2,0-61.8,0-91,0C9.5,52.7,9.9,96.4,9.8,139.4
		c22.3,0.6,45.6,0.1,68.3,0.2c0.7-6.6-0.2-14.9,0.5-21.5c7.5,0,15,0,22.4,0c0-9.2,0-18.5,0-27.7c2.9-0.5,6.8-0.1,10-0.2
		c0,5.4,0,10.7,0,16.2c0,5.3,1,11.5-0.2,16c-0.7,2.7-4.4,4.8-6.9,7.2c-5.2,4.8-9.5,8.6-14.8,13.4c-2.5,2.3-5.3,5.4-7.9,6.4
		c-25.9,0-51.7,0-77.6,0c-1.7-0.6-2.9-1.8-3.6-3.6C0,98.5,0,51,0,3.6C0.7,1.9,1.9,0.7,3.6,0z"/>
	<path fill-rule="evenodd" clip-rule="evenodd" fill="#9C9C95" d="M124.6,46.6c0,13.2,0,26.4,0,39.6C97.7,86,70,86.5,43.5,86
		c0.2-13.1-0.3-26.7,0.2-39.4C70.7,46.6,97.7,46.6,124.6,46.6z M72.6,61.1c-0.1-7.7-9.4-8.4-16.7-6.9c0,8.2,0,16.4,0,24.6
		c1.4,0,2.9,0,4.3,0c0-3.2,0-6.4,0-9.6C67.8,70.3,72.6,66.5,72.6,61.1z M92.9,76.6c5.3-3.5,7-13.1,2.9-18.6
		c-3.3-4.3-12-5.2-19.1-3.8c0,8.1,0,16.2,0,24.4C82.9,79.3,88.7,79.4,92.9,76.6z M102.2,53.7c0,8.4,0,16.7,0,25.1c1.4,0,2.9,0,4.3,0
		c0-3.6,0-7.2,0-10.7c3.1,0,6.2,0,9.3,0c0-1.2,0-2.4,0-3.6c-3-0.2-6.7,0.3-9.3-0.2c0.1-2.2-0.3-5.1,0.2-6.9c3.3,0,6.5,0,9.8,0
		c0-1.2,0-2.4,0-3.6C111.7,53.7,107,53.7,102.2,53.7z"/>
	<path fill-rule="evenodd" clip-rule="evenodd" fill="#9C9C95" d="M60.2,65.7c0-2.8,0-5.6,0-8.4C70.9,54,70.1,69,60.2,65.7z"/>
	<path fill-rule="evenodd" clip-rule="evenodd" fill="#9C9C95" d="M81.2,75.5c-0.4-5.5-0.4-12.7,0-18.1C97.1,52.4,97,79.5,81.2,75.5
		z"/>
</g>
</svg>
