<?xml version="1.0" encoding="utf-8"?>
<!-- Generator: Adobe Illustrator 15.0.2, SVG Export Plug-In . SVG Version: 6.00 Build 0)  -->
<!DOCTYPE svg PUBLIC "-//W3C//DTD SVG 1.1//EN" "http://www.w3.org/Graphics/SVG/1.1/DTD/svg11.dtd">
<svg version="1.1" id="Layer_1" xmlns="http://www.w3.org/2000/svg" xmlns:xlink="http://www.w3.org/1999/xlink" x="0px" y="0px"
	 width="125px" height="95.484px" viewBox="0 0 125 95.484" enable-background="new 0 0 125 95.484" xml:space="preserve">
<rect x="3.865" y="9.76" fill="#505050" width="46.428" height="80.655"/>
<polygon fill="#373737" points="37.635,9.76 3.865,9.76 3.865,90.415 50.293,90.415 50.293,22.418 "/>
<rect x="3.865" y="83.769" fill="#232323" width="46.428" height="6.646"/>
<g>
	<defs>
		<rect id="SVGID_1_" y="0" width="125" height="95.484"/>
	</defs>
	<clipPath id="SVGID_2_">
		<use xlink:href="#SVGID_1_"  overflow="visible"/>
	</clipPath>
	<path clip-path="url(#SVGID_2_)" fill="#58595B" d="M37.638,65.36c0,4.447-3.606,8.054-8.055,8.054H22.11
		c-4.448,0-8.054-3.606-8.054-8.054V8.055C14.056,3.606,17.662,0,22.11,0h7.473c4.449,0,8.055,3.606,8.055,8.055V65.36z"/>
	<path clip-path="url(#SVGID_2_)" fill="#232323" d="M29.583,0h-5.059c4.448,0,8.054,3.607,8.054,8.056V65.36
		c0,4.447-3.606,8.054-8.054,8.054h5.059c4.448,0,8.055-3.606,8.055-8.054V8.056C37.638,3.607,34.031,0,29.583,0"/>
	<path clip-path="url(#SVGID_2_)" fill="#58595B" d="M120.834,4.518H47.783c-2.3,0-4.167,1.866-4.167,4.167v82.634
		c0,2.301,1.867,4.166,4.167,4.166h73.051c2.302,0,4.167-1.865,4.167-4.166V8.685C125.001,6.384,123.136,4.518,120.834,4.518"/>
	<path clip-path="url(#SVGID_2_)" fill="#373737" d="M120.834,83.089H47.783c-2.3,0-4.167,1.866-4.167,4.167v4.063
		c0,2.3,1.867,4.166,4.167,4.166h73.051c2.302,0,4.167-1.866,4.167-4.166v-4.063C125.001,84.955,123.136,83.089,120.834,83.089"/>
	<path clip-path="url(#SVGID_2_)" fill="#232323" d="M32.524,64.106H18.588l-1.506,7.54c1.378,1.105,3.125,1.768,5.027,1.768h7.474
		c1.677,0,3.233-0.514,4.523-1.391L32.524,64.106z"/>
	<rect x="24.668" y="72.459" clip-path="url(#SVGID_2_)" fill="#373737" width="2.355" height="17.857"/>
	<rect x="24.668" y="76.626" clip-path="url(#SVGID_2_)" fill="#696969" width="2.355" height="16.864"/>
	<rect x="25.846" y="76.626" clip-path="url(#SVGID_2_)" fill="#4A4A4A" width="1.177" height="16.864"/>
	<rect x="24.668" y="76.626" clip-path="url(#SVGID_2_)" fill="#4A4A4A" width="2.355" height="1.543"/>
	<rect x="24.668" y="91.947" clip-path="url(#SVGID_2_)" fill="#4A4A4A" width="2.355" height="1.543"/>
	<rect x="23.031" y="72.459" clip-path="url(#SVGID_2_)" fill="#696969" width="5.629" height="4.167"/>
	<rect x="25.846" y="72.459" clip-path="url(#SVGID_2_)" fill="#4A4A4A" width="2.814" height="4.167"/>
	<path clip-path="url(#SVGID_2_)" fill="#58595B" d="M4.167,95.484c-2.3,0-4.167-1.865-4.167-4.166V8.769
		c0-2.301,1.867-4.167,4.167-4.167c2.302,0,4.166,1.866,4.166,4.167v82.55C8.333,93.619,6.469,95.484,4.167,95.484"/>
	<path clip-path="url(#SVGID_2_)" fill="#373737" d="M4.167,83.089c-2.3,0-4.167,1.866-4.167,4.167v4.063
		c0,2.3,1.867,4.166,4.167,4.166c2.302,0,4.166-1.866,4.166-4.166v-4.063C8.333,84.955,6.469,83.089,4.167,83.089"/>
	<path clip-path="url(#SVGID_2_)" fill="#373737" d="M113.655,9.844L55.353,26.36l9.953,9.952l-8.464,2.994L64.535,47l-7.694,2.722
		l7.658,7.658l-7.658,2.709l7.804,7.805l-7.804,2.761l24.83,24.83h39.162c2.303,0,4.167-1.865,4.167-4.166V21.189L113.655,9.844z"/>
	<path clip-path="url(#SVGID_2_)" fill="#BCBEC0" d="M56.841,49.642h13.046v-4.518H56.841V49.642z M56.841,39.178h13.046v-4.519
		H56.841V39.178z M78.295,60.107h13.046V55.59H78.295V60.107z M78.295,70.572h13.046v-4.519H78.295V70.572z M56.841,70.572h13.046
		v-4.519H56.841V70.572z M56.841,60.107h13.046V55.59H56.841V60.107z M99.747,49.642h13.046v-4.518H99.747V49.642z M99.747,39.178
		h13.046v-4.519H99.747V39.178z M99.747,60.107h13.046V55.59H99.747V60.107z M78.295,49.642h13.046v-4.518H78.295V49.642z
		 M78.295,39.178h13.046v-4.519H78.295V39.178z M99.747,70.572h13.046v-4.519H99.747V70.572z"/>
	<rect x="55.353" y="9.843" clip-path="url(#SVGID_2_)" fill="#00A1BE" width="58.531" height="16.549"/>
	<polygon clip-path="url(#SVGID_2_)" fill="#00D2EF" points="55.353,9.844 55.353,26.393 71.927,26.393 55.377,9.844 	"/>
</g>
</svg>
