<?xml version="1.0" encoding="utf-8"?>
<!-- Generator: Adobe Illustrator 15.0.2, SVG Export Plug-In . SVG Version: 6.00 Build 0)  -->
<!DOCTYPE svg PUBLIC "-//W3C//DTD SVG 1.1//EN" "http://www.w3.org/Graphics/SVG/1.1/DTD/svg11.dtd">
<svg version="1.1" id="Layer_1" xmlns="http://www.w3.org/2000/svg" xmlns:xlink="http://www.w3.org/1999/xlink" x="0px" y="0px"
	 width="125px" height="114.431px" viewBox="0 0 125 114.431" enable-background="new 0 0 125 114.431" xml:space="preserve">
<g>
	<defs>
		<rect id="SVGID_1_" width="125" height="114.431"/>
	</defs>
	<clipPath id="SVGID_2_">
		<use xlink:href="#SVGID_1_"  overflow="visible"/>
	</clipPath>
	<path clip-path="url(#SVGID_2_)" fill="#FF4436" d="M113.143,83.971c6.548,0,11.857-5.309,11.857-11.857V11.859
		C125,5.31,119.69,0,113.143,0H11.856C5.309,0,0,5.31,0,11.859v60.254c0,6.549,5.309,11.857,11.857,11.857h4.929l-2.079,16.634
		l14.107-16.634H113.143z"/>
	<path clip-path="url(#SVGID_2_)" fill="#BF1200" d="M108.81,36.75L69.752,83.971h43.391c6.548,0,11.857-5.309,11.857-11.857V52.939
		L108.81,36.75z"/>
	<path clip-path="url(#SVGID_2_)" fill="#FFB500" d="M103.312,34.554H40.497c-4.352,0-7.879,3.527-7.879,7.88v45.157
		c0,4.352,3.527,7.879,7.879,7.879h40.78l20.586,18.961L97.308,95.47h6.005c4.352,0,7.879-3.527,7.879-7.879V42.434
		C111.191,38.081,107.664,34.554,103.312,34.554"/>
	<path clip-path="url(#SVGID_2_)" fill="#FFFFFF" d="M71.954,74.935c-1.792,0-3.247,1.456-3.247,3.248s1.455,3.247,3.247,3.247
		c1.794,0,3.248-1.455,3.248-3.247S73.748,74.935,71.954,74.935 M80.938,53.595c-1.032-2.747-3.485-4.576-6.91-5.151
		c-7.046-1.182-10.242,4.676-10.948,7.941l4.341,0.94c0.116-0.544,1.273-5.273,5.873-4.501c1.849,0.31,3.022,1.094,3.487,2.333
		c0.593,1.577,0.035,3.866-1.355,5.567c-0.546,0.667-1.058,1.27-1.527,1.823c-2.364,2.79-4.073,4.806-4.101,8.042v1.517h4.44v-1.497
		c0.015-1.549,0.891-2.644,3.048-5.189c0.486-0.572,1.012-1.194,1.576-1.884C81.28,60.577,82.097,56.675,80.938,53.595"/>
</g>
</svg>
