<?xml version="1.0" encoding="utf-8"?>
<!-- Generator: Adobe Illustrator 15.0.2, SVG Export Plug-In . SVG Version: 6.00 Build 0)  -->
<!DOCTYPE svg PUBLIC "-//W3C//DTD SVG 1.1//EN" "http://www.w3.org/Graphics/SVG/1.1/DTD/svg11.dtd">
<svg version="1.1" id="Layer_1" xmlns="http://www.w3.org/2000/svg" xmlns:xlink="http://www.w3.org/1999/xlink" x="0px" y="0px"
	 width="369.202px" height="411.702px" viewBox="0 0 369.202 411.702" enable-background="new 0 0 369.202 411.702"
	 xml:space="preserve">
<g>
	<defs>
		<rect id="SVGID_1_" width="369.202" height="411.702"/>
	</defs>
	<clipPath id="SVGID_2_">
		<use xlink:href="#SVGID_1_"  overflow="visible"/>
	</clipPath>
	<polygon clip-path="url(#SVGID_2_)" fill="#B47D4B" points="64.047,169.045 64.047,318.232 184.602,411.702 305.154,318.232 
		305.154,169.045 	"/>
	<polygon clip-path="url(#SVGID_2_)" fill="#CC9D60" points="184.602,169.045 184.602,411.702 305.154,318.232 305.154,169.045 	"/>
	<polygon clip-path="url(#SVGID_2_)" fill="#B47D4B" points="184.602,266.407 229.644,337.756 305.154,276.051 305.154,202.631 	"/>
	<g clip-path="url(#SVGID_2_)">
		<defs>
			<rect id="SVGID_3_" width="369.202" height="411.702"/>
		</defs>
		<clipPath id="SVGID_4_">
			<use xlink:href="#SVGID_3_"  overflow="visible"/>
		</clipPath>
		<g opacity="0.2" clip-path="url(#SVGID_4_)">
			<g>
				<defs>
					<rect id="SVGID_5_" x="64.048" y="230.358" width="120.553" height="105.055"/>
				</defs>
				<clipPath id="SVGID_6_">
					<use xlink:href="#SVGID_5_"  overflow="visible"/>
				</clipPath>
				<polygon clip-path="url(#SVGID_6_)" fill="#B47D4B" points="184.602,266.407 129.667,335.413 64.048,283.862 66.008,230.359 
									"/>
			</g>
		</g>
	</g>
	<path clip-path="url(#SVGID_2_)" fill="#E2BE88" d="M180.377,174.018l5.786-4.485l3.443,2.668l-5.786,4.487L180.377,174.018z
		 M186.163,79.487l-62.485-48.448L3.124,124.509l60.729,47.087L0,221.104l120.553,93.471l63.267-49.054l63.267,49.054
		l120.554-93.471l-61.512-47.691l63.073-48.904l-120.553-93.47L186.163,79.487z"/>
	<polygon clip-path="url(#SVGID_2_)" fill="#CFA264" points="184.602,79.465 64.048,172.937 184.602,266.406 305.154,172.937 	"/>
	<polygon clip-path="url(#SVGID_2_)" fill="#B47F4B" points="184.602,79.465 184.602,266.406 305.154,172.937 	"/>
	<g clip-path="url(#SVGID_2_)">
		<defs>
			<rect id="SVGID_7_" width="369.202" height="411.702"/>
		</defs>
		<clipPath id="SVGID_8_">
			<use xlink:href="#SVGID_7_"  overflow="visible"/>
		</clipPath>
		<g opacity="0.7" clip-path="url(#SVGID_8_)">
			<g>
				<defs>
					<rect id="SVGID_9_" x="199.729" y="343.979" width="16.347" height="47.544"/>
				</defs>
				<clipPath id="SVGID_10_">
					<use xlink:href="#SVGID_9_"  overflow="visible"/>
				</clipPath>
				<path clip-path="url(#SVGID_10_)" fill="#B47D4B" d="M216.074,378.258l-16.346,13.264v-3.893l16.346-13.264V378.258z
					 M212.733,343.979l-3.341,13.339l2.225-1.806v18.454l2.233-1.812V353.7l2.224-1.806L212.733,343.979z M203.069,351.821
					l-3.341,13.338l2.224-1.806v18.454l2.234-1.812v-18.454l2.224-1.805L203.069,351.821z"/>
			</g>
		</g>
		<g opacity="0.2" clip-path="url(#SVGID_8_)">
			<g>
				<defs>
					<rect id="SVGID_11_" x="99.13" y="133.867" width="170.942" height="132.54"/>
				</defs>
				<clipPath id="SVGID_12_">
					<use xlink:href="#SVGID_11_"  overflow="visible"/>
				</clipPath>
				<polygon clip-path="url(#SVGID_12_)" fill="#B47D4B" points="99.13,200.137 184.602,133.867 270.072,200.137 184.602,266.407 
									"/>
			</g>
		</g>
	</g>
	<polygon clip-path="url(#SVGID_2_)" fill="#4D5A68" points="240.186,141.098 238.097,144.666 225.25,144.666 223.145,141.098 	"/>
	<rect x="216.84" y="124.079" clip-path="url(#SVGID_2_)" fill="#E6E6E6" width="29.663" height="17.019"/>
	<rect x="216.84" y="126.549" clip-path="url(#SVGID_2_)" fill="#4D5A68" width="29.663" height="2.995"/>
	<rect x="216.84" y="131.096" clip-path="url(#SVGID_2_)" fill="#4D5A68" width="29.663" height="2.988"/>
	<rect x="216.84" y="135.634" clip-path="url(#SVGID_2_)" fill="#4D5A68" width="29.663" height="2.995"/>
	<polygon clip-path="url(#SVGID_2_)" fill="#9CAAB8" points="251.696,114.677 246.492,124.079 216.809,124.079 211.591,114.677 	"/>
	<g clip-path="url(#SVGID_2_)">
		<defs>
			<rect id="SVGID_13_" width="369.202" height="411.702"/>
		</defs>
		<clipPath id="SVGID_14_">
			<use xlink:href="#SVGID_13_"  overflow="visible"/>
		</clipPath>
		<path clip-path="url(#SVGID_14_)" fill="#9CAAB8" d="M187.571,44.154c0,8.495,2.526,16.287,6.845,23.522l13.19,22.064
			c2.136,3.573,3.95,9.575,4.046,13.394l0.014,0.617h39.92l0.014-0.603c0.096-3.819,1.902-9.73,4.046-13.303l13.189-22.074
			c4.326-7.235,6.839-15.103,6.839-23.598c0-0.101-0.008-0.422-0.008-0.422h-88.088C187.578,43.751,187.571,44.058,187.571,44.154"
			/>
		<path clip-path="url(#SVGID_14_)" fill="#C5D3E1" d="M231.626,0c-24.244,0-43.891,18.752-44.047,43.752h88.087
			C275.503,18.752,255.865,0,231.626,0"/>
		<rect x="211.596" y="98.202" clip-path="url(#SVGID_14_)" fill="#FFFFFF" width="40.101" height="16.478"/>
		<path clip-path="url(#SVGID_14_)" fill="#9CAAB8" d="M136.825,90.423h13.529V58.91c0-16.161-13.15-29.31-29.313-29.31h-13.027
			v13.528h13.027c8.703,0,15.784,7.079,15.784,15.782V90.423z"/>
		<path clip-path="url(#SVGID_14_)" fill="#FFFFFF" d="M170.458,149.027c0,0,7.501,9.734,7.501,15.737
			c0,4.143-3.36,7.503-7.501,7.503c-4.143,0-7.503-3.36-7.503-7.503C162.955,158.761,170.458,149.027,170.458,149.027"/>
		<path clip-path="url(#SVGID_14_)" fill="#FFFFFF" d="M143.863,149.027c0,0,7.501,9.734,7.501,15.737
			c0,4.143-3.36,7.503-7.501,7.503c-4.143,0-7.501-3.36-7.501-7.503C136.362,158.761,143.863,149.027,143.863,149.027"/>
		<path clip-path="url(#SVGID_14_)" fill="#FFFFFF" d="M117.27,149.027c0,0,7.498,9.734,7.498,15.737
			c0,4.143-3.36,7.503-7.498,7.503c-4.145,0-7.506-3.36-7.506-7.503C109.764,158.761,117.27,149.027,117.27,149.027"/>
		<path clip-path="url(#SVGID_14_)" fill="#FFFFFF" d="M157.16,178.017c0,0,7.498,9.734,7.498,15.737
			c0,4.143-3.357,7.503-7.498,7.503c-4.146,0-7.503-3.36-7.503-7.503C149.657,187.75,157.16,178.017,157.16,178.017"/>
		<path clip-path="url(#SVGID_14_)" fill="#FFFFFF" d="M130.565,178.017c0,0,7.501,9.734,7.501,15.737
			c0,4.143-3.36,7.503-7.501,7.503c-4.143,0-7.503-3.36-7.503-7.503C123.062,187.75,130.565,178.017,130.565,178.017"/>
		<path clip-path="url(#SVGID_14_)" fill="#C5D3E1" d="M143.863,76.019c26.118,0,47.295,21.172,47.295,47.294H96.566
			C96.566,97.191,117.742,76.019,143.863,76.019"/>
		<rect x="96.566" y="129.654" clip-path="url(#SVGID_14_)" fill="#4D5A68" width="94.592" height="7.122"/>
	</g>
</g>
</svg>
