<?xml version="1.0" encoding="utf-8"?>
<!-- Generator: Adobe Illustrator 15.0.2, SVG Export Plug-In . SVG Version: 6.00 Build 0)  -->
<!DOCTYPE svg PUBLIC "-//W3C//DTD SVG 1.1//EN" "http://www.w3.org/Graphics/SVG/1.1/DTD/svg11.dtd">
<svg version="1.1" id="Layer_1" xmlns="http://www.w3.org/2000/svg" xmlns:xlink="http://www.w3.org/1999/xlink" x="0px" y="0px"
	 width="369.202px" height="456.202px" viewBox="0 0 369.202 456.202" enable-background="new 0 0 369.202 456.202"
	 xml:space="preserve">
<g>
	<defs>
		<rect id="SVGID_1_" width="369.202" height="456.202"/>
	</defs>
	<clipPath id="SVGID_2_">
		<use xlink:href="#SVGID_1_"  overflow="visible"/>
	</clipPath>
	<polygon clip-path="url(#SVGID_2_)" fill="#B47D4B" points="64.047,196.044 64.047,362.731 184.602,456.202 305.154,362.731 
		305.154,196.044 	"/>
	<polygon clip-path="url(#SVGID_2_)" fill="#CC9D60" points="184.602,196.044 184.602,456.202 305.154,362.731 305.154,196.044 	"/>
	<polygon clip-path="url(#SVGID_2_)" fill="#B47D4B" points="184.602,293.407 229.644,364.756 305.154,303.051 305.154,229.631 	"/>
	<g clip-path="url(#SVGID_2_)">
		<defs>
			<rect id="SVGID_3_" width="369.202" height="456.202"/>
		</defs>
		<clipPath id="SVGID_4_">
			<use xlink:href="#SVGID_3_"  overflow="visible"/>
		</clipPath>
		<g opacity="0.2" clip-path="url(#SVGID_4_)">
			<g>
				<defs>
					<rect id="SVGID_5_" x="64.048" y="257.358" width="120.553" height="105.055"/>
				</defs>
				<clipPath id="SVGID_6_">
					<use xlink:href="#SVGID_5_"  overflow="visible"/>
				</clipPath>
				<polygon clip-path="url(#SVGID_6_)" fill="#B47D4B" points="184.602,293.407 129.667,362.413 64.048,310.862 66.008,257.359 
									"/>
			</g>
		</g>
	</g>
	<path clip-path="url(#SVGID_2_)" fill="#E2BE88" d="M180.377,201.019l5.786-4.486l3.443,2.669l-5.786,4.486L180.377,201.019z
		 M186.163,106.487L123.678,58.04L3.124,151.509l60.729,47.087L0,248.105l120.553,93.47l63.267-49.054l63.267,49.054l120.554-93.47
		l-61.512-47.692l63.073-48.904L248.649,58.04L186.163,106.487z"/>
	<polygon clip-path="url(#SVGID_2_)" fill="#CFA264" points="184.602,106.465 64.048,199.937 184.602,293.406 305.154,199.937 	"/>
	<polygon clip-path="url(#SVGID_2_)" fill="#B47F4B" points="184.602,106.465 184.602,293.406 305.154,199.937 	"/>
	<g clip-path="url(#SVGID_2_)">
		<defs>
			<rect id="SVGID_7_" width="369.202" height="456.202"/>
		</defs>
		<clipPath id="SVGID_8_">
			<use xlink:href="#SVGID_7_"  overflow="visible"/>
		</clipPath>
		<g opacity="0.7" clip-path="url(#SVGID_8_)">
			<g>
				<defs>
					<rect id="SVGID_9_" x="199.729" y="388.479" width="16.347" height="47.544"/>
				</defs>
				<clipPath id="SVGID_10_">
					<use xlink:href="#SVGID_9_"  overflow="visible"/>
				</clipPath>
				<path clip-path="url(#SVGID_10_)" fill="#B47D4B" d="M216.074,422.758l-16.346,13.264v-3.893l16.346-13.264V422.758z
					 M212.733,388.479l-3.341,13.339l2.225-1.806v18.454l2.233-1.812V398.2l2.224-1.806L212.733,388.479z M203.069,396.321
					l-3.341,13.338l2.224-1.806v18.454l2.234-1.812v-18.454l2.224-1.805L203.069,396.321z"/>
			</g>
		</g>
		<g opacity="0.2" clip-path="url(#SVGID_8_)">
			<g>
				<defs>
					<rect id="SVGID_11_" x="99.13" y="160.867" width="170.942" height="132.54"/>
				</defs>
				<clipPath id="SVGID_12_">
					<use xlink:href="#SVGID_11_"  overflow="visible"/>
				</clipPath>
				<polygon clip-path="url(#SVGID_12_)" fill="#B47D4B" points="99.13,227.137 184.602,160.867 270.072,227.137 184.602,293.407 
									"/>
			</g>
		</g>
	</g>
	<polygon clip-path="url(#SVGID_2_)" fill="#4D5A68" points="197.186,141.098 195.097,144.666 182.25,144.666 180.145,141.098 	"/>
	<rect x="173.84" y="124.079" clip-path="url(#SVGID_2_)" fill="#E6E6E6" width="29.663" height="17.019"/>
	<rect x="173.84" y="126.549" clip-path="url(#SVGID_2_)" fill="#4D5A68" width="29.663" height="2.995"/>
	<rect x="173.84" y="131.096" clip-path="url(#SVGID_2_)" fill="#4D5A68" width="29.663" height="2.988"/>
	<rect x="173.84" y="135.634" clip-path="url(#SVGID_2_)" fill="#4D5A68" width="29.663" height="2.995"/>
	<polygon clip-path="url(#SVGID_2_)" fill="#9CAAB8" points="208.696,114.677 203.492,124.079 173.809,124.079 168.59,114.677 	"/>
	<g clip-path="url(#SVGID_2_)">
		<defs>
			<rect id="SVGID_13_" width="369.202" height="456.202"/>
		</defs>
		<clipPath id="SVGID_14_">
			<use xlink:href="#SVGID_13_"  overflow="visible"/>
		</clipPath>
		<path clip-path="url(#SVGID_14_)" fill="#9CAAB8" d="M144.571,44.154c0,8.495,2.526,16.287,6.845,23.522l13.19,22.064
			c2.136,3.573,3.95,9.575,4.046,13.394l0.014,0.617h39.919l0.014-0.603c0.096-3.819,1.902-9.73,4.046-13.303l13.189-22.074
			c4.326-7.235,6.839-15.103,6.839-23.598c0-0.101-0.008-0.422-0.008-0.422h-88.087C144.579,43.751,144.571,44.058,144.571,44.154"
			/>
		<path clip-path="url(#SVGID_14_)" fill="#FFFFFF" d="M188.626,0c-24.244,0-43.891,18.752-44.047,43.752h88.087
			C232.503,18.752,212.865,0,188.626,0"/>
		<rect x="168.596" y="98.202" clip-path="url(#SVGID_14_)" fill="#FFFFFF" width="40.1" height="16.478"/>
		<path clip-path="url(#SVGID_14_)" fill="#9CAAB8" d="M102.075,103.079h13.529V71.566c0-16.161-13.15-29.31-29.313-29.31H73.264
			v13.528h13.027c8.703,0,15.784,7.079,15.784,15.782V103.079z"/>
		<path clip-path="url(#SVGID_14_)" fill="#FFFFFF" d="M135.708,161.684c0,0,7.501,9.734,7.501,15.737
			c0,4.143-3.36,7.503-7.501,7.503c-4.143,0-7.503-3.36-7.503-7.503C128.205,171.417,135.708,161.684,135.708,161.684"/>
		<path clip-path="url(#SVGID_14_)" fill="#FFFFFF" d="M109.113,161.684c0,0,7.501,9.734,7.501,15.737
			c0,4.143-3.36,7.503-7.501,7.503c-4.143,0-7.501-3.36-7.501-7.503C101.612,171.417,109.113,161.684,109.113,161.684"/>
		<path clip-path="url(#SVGID_14_)" fill="#FFFFFF" d="M82.52,161.684c0,0,7.498,9.734,7.498,15.737c0,4.143-3.36,7.503-7.498,7.503
			c-4.145,0-7.506-3.36-7.506-7.503C75.014,171.417,82.52,161.684,82.52,161.684"/>
		<path clip-path="url(#SVGID_14_)" fill="#FFFFFF" d="M122.41,190.673c0,0,7.498,9.734,7.498,15.737
			c0,4.143-3.357,7.503-7.498,7.503c-4.146,0-7.503-3.36-7.503-7.503C114.907,200.407,122.41,190.673,122.41,190.673"/>
		<path clip-path="url(#SVGID_14_)" fill="#FFFFFF" d="M95.815,190.673c0,0,7.501,9.734,7.501,15.737
			c0,4.143-3.36,7.503-7.501,7.503c-4.143,0-7.503-3.36-7.503-7.503C88.312,200.407,95.815,190.673,95.815,190.673"/>
		<path clip-path="url(#SVGID_14_)" fill="#C5D3E1" d="M109.113,88.675c26.118,0,47.296,21.172,47.296,47.294H61.816
			C61.816,109.847,82.992,88.675,109.113,88.675"/>
		<rect x="61.816" y="142.31" clip-path="url(#SVGID_14_)" fill="#4D5A68" width="94.592" height="7.122"/>
		<path clip-path="url(#SVGID_14_)" fill="#4D5A68" d="M291.959,89.037v13.379c0,0.948-0.769,1.716-1.716,1.716
			s-1.716-0.768-1.716-1.716V89.037c0-0.948,0.769-1.716,1.716-1.716S291.959,88.089,291.959,89.037"/>
		<path clip-path="url(#SVGID_14_)" fill="#4D5A68" d="M304.975,89.037v13.379c0,0.948-0.768,1.716-1.716,1.716
			c-0.947,0-1.715-0.768-1.715-1.716V89.037c0-0.948,0.768-1.716,1.715-1.716C304.207,87.321,304.975,88.089,304.975,89.037"/>
		<path clip-path="url(#SVGID_14_)" fill="#FFFFFF" d="M300.753,59.736v21.49c0,0.948-0.768,1.716-1.716,1.716h-3.833
			c-0.948,0-1.716-0.768-1.716-1.716V59.738c0-5.518-4.474-9.991-9.99-9.991h-17.692c-5.518,0-9.99,4.473-9.99,9.991v38.157h-7.265
			V59.738c0-9.531,7.727-17.257,17.256-17.257h17.691C293.028,42.48,300.753,50.206,300.753,59.736"/>
		<path clip-path="url(#SVGID_14_)" fill="#C5D3E1" d="M286.464,70.07h22.381c0.948,0,1.716,0.768,1.716,1.716v21.308
			c0,0.947-0.768,1.716-1.716,1.716h-22.379c-1.952,0-3.533-1.582-3.533-3.534V73.602C282.933,71.651,284.514,70.07,286.464,70.07"
			/>
		<path clip-path="url(#SVGID_14_)" fill="#C5D3E1" d="M258.975,90.403c1.003,0,1.816,0.811,1.816,1.816v3.858
			c0,1.004-0.813,1.818-1.816,1.818h-12.942c-1.003,0-1.817-0.814-1.817-1.818v-3.858c0-1.005,0.814-1.816,1.817-1.816H258.975z"/>
		<path clip-path="url(#SVGID_14_)" fill="#C5D3E1" d="M305.034,68.835v4.06c-0.671,0.671-1.047,1.047-1.717,1.717h-13.141
			c-0.948,0-1.716-0.768-1.716-1.715v-4.062c0-0.948,0.768-1.716,1.716-1.716h13.142C304.267,67.12,305.034,67.888,305.034,68.835"
			/>
		<path clip-path="url(#SVGID_14_)" fill="#FFFFFF" d="M268.612,96.077c2.508,0,4.541,2.035,4.541,4.543v104.747
			c0,2.51-2.033,4.541-4.541,4.541h-33.151c-2.508,0-4.539-2.031-4.539-4.541V100.62c0-2.508,2.031-4.543,4.539-4.543H268.612z"/>
		<path clip-path="url(#SVGID_14_)" fill="#C5D3E1" d="M252.038,172.418c9.29,0,16.821,7.53,16.821,16.821
			c0,9.29-7.531,16.822-16.821,16.822c-9.293,0-16.823-7.532-16.823-16.822C235.215,179.948,242.745,172.418,252.038,172.418"/>
		<path clip-path="url(#SVGID_14_)" fill="#9CAAB8" d="M252.038,177.959c5.539,0,10.141,3.979,11.095,9.239h-1.854
			c-0.26,0-0.475,0.214-0.475,0.474v2.939c0,0.262,0.215,0.475,0.475,0.475h1.883c-0.873,5.352-5.519,9.435-11.123,9.435
			c-5.593,0-10.25-4.083-11.125-9.435h1.793c0.258,0,0.473-0.213,0.473-0.475v-2.939c0-0.26-0.215-0.474-0.473-0.474h-1.765
			C241.907,181.938,246.51,177.959,252.038,177.959"/>
		<path clip-path="url(#SVGID_14_)" fill="#4D5A68" d="M252.021,191.607c1.419,0,2.566,1.147,2.566,2.562
			c0,1.417-1.147,2.564-2.566,2.564c-1.415,0-2.562-1.147-2.562-2.564C249.459,192.754,250.605,191.607,252.021,191.607"/>
		<path clip-path="url(#SVGID_14_)" fill="#4D5A68" d="M252.021,181.377c1.419,0,2.566,1.149,2.566,2.566
			c0,1.413-1.147,2.56-2.566,2.56c-1.415,0-2.562-1.147-2.562-2.56C249.459,182.527,250.605,181.377,252.021,181.377"/>
		<path clip-path="url(#SVGID_14_)" fill="#C5D3E1" d="M252.038,136.173c9.29,0,16.821,7.53,16.821,16.821
			c0,9.29-7.531,16.821-16.821,16.821c-9.293,0-16.823-7.531-16.823-16.821C235.215,143.703,242.745,136.173,252.038,136.173"/>
		<path clip-path="url(#SVGID_14_)" fill="#9CAAB8" d="M252.038,141.713c5.539,0,10.141,3.979,11.095,9.24h-1.854
			c-0.26,0-0.475,0.213-0.475,0.473v2.94c0,0.261,0.215,0.474,0.475,0.474h1.883c-0.873,5.352-5.519,9.435-11.123,9.435
			c-5.593,0-10.25-4.083-11.125-9.435h1.793c0.258,0,0.473-0.213,0.473-0.474v-2.94c0-0.26-0.215-0.473-0.473-0.473h-1.765
			C241.907,145.692,246.51,141.713,252.038,141.713"/>
		<path clip-path="url(#SVGID_14_)" fill="#4D5A68" d="M252.021,155.362c1.419,0,2.566,1.147,2.566,2.564
			c0,1.415-1.147,2.562-2.566,2.562c-1.415,0-2.562-1.147-2.562-2.562C249.459,156.509,250.605,155.362,252.021,155.362"/>
		<path clip-path="url(#SVGID_14_)" fill="#4D5A68" d="M252.021,145.134c1.419,0,2.566,1.147,2.566,2.562
			c0,1.414-1.147,2.562-2.566,2.562c-1.415,0-2.562-1.148-2.562-2.562C249.459,146.281,250.605,145.134,252.021,145.134"/>
		<path clip-path="url(#SVGID_14_)" fill="#C5D3E1" d="M252.038,99.926c9.29,0,16.821,7.532,16.821,16.823
			s-7.531,16.823-16.821,16.823c-9.293,0-16.823-7.532-16.823-16.823S242.745,99.926,252.038,99.926"/>
		<path clip-path="url(#SVGID_14_)" fill="#9CAAB8" d="M252.038,105.469c5.539,0,10.141,3.979,11.095,9.24h-1.854
			c-0.26,0-0.475,0.213-0.475,0.473v2.941c0,0.26,0.215,0.474,0.475,0.474h1.883c-0.873,5.353-5.519,9.434-11.123,9.434
			c-5.593,0-10.25-4.081-11.125-9.434h1.793c0.258,0,0.473-0.214,0.473-0.474v-2.941c0-0.26-0.215-0.473-0.473-0.473h-1.765
			C241.907,109.448,246.51,105.469,252.038,105.469"/>
		<path clip-path="url(#SVGID_14_)" fill="#4D5A68" d="M252.021,119.117c1.419,0,2.566,1.147,2.566,2.562
			c0,1.417-1.147,2.566-2.566,2.566c-1.415,0-2.562-1.149-2.562-2.566C249.459,120.264,250.605,119.117,252.021,119.117"/>
		<path clip-path="url(#SVGID_14_)" fill="#4D5A68" d="M252.021,108.889c1.419,0,2.566,1.147,2.566,2.564
			c0,1.413-1.147,2.56-2.566,2.56c-1.415,0-2.562-1.147-2.562-2.56C249.459,110.036,250.605,108.889,252.021,108.889"/>
		<path clip-path="url(#SVGID_14_)" fill="#FFFFFF" d="M284.648,87.899h24.196c0.947,0,1.717,0.768,1.717,1.716v3.478
			c0,0.948-0.77,1.716-1.717,1.716h-22.381c-1.95,0-3.531-1.581-3.531-3.531v-1.663C282.933,88.667,283.7,87.899,284.648,87.899"/>
	</g>
</g>
</svg>
