<?xml version="1.0" encoding="utf-8"?>
<!-- Generator: Adobe Illustrator 18.1.1, SVG Export Plug-In . SVG Version: 6.00 Build 0)  -->
<svg version="1.1" id="Layer_1" xmlns="http://www.w3.org/2000/svg" xmlns:xlink="http://www.w3.org/1999/xlink" x="0px" y="0px"
	 viewBox="0 0 387 60.9" enable-background="new 0 0 387 60.9" xml:space="preserve">
<g>
	<g>
		<path fill="#58595B" d="M113.4,48h-6.1V19.3H96.5v-5.6h27.8v5.6h-10.9V48z"/>
		<path fill="#58595B" d="M113.5,48.1h-6.3V19.4H96.3v-5.8h28.1v5.8h-10.9V48.1z M107.5,47.8h5.8V19.1h10.9v-5.3H96.6v5.3h10.9V47.8
			z"/>
	</g>
	<g>
		<path fill="#58595B" d="M155.8,19.1h-19.4V28h17.2v5.4h-17.2v9.2H156V48h-25.7V13.7h25.4V19.1z"/>
		<path fill="#58595B" d="M156.2,48.1h-25.9V13.6h25.7v5.6h-19.4v8.7h17.2v5.6h-17.2v8.9h19.6V48.1z M130.5,47.8h25.4v-5.1h-19.6
			v-9.5h17.2v-5.1h-17.2v-9.2h19.4v-5.1h-25.2V47.8z"/>
	</g>
	<g>
		<path fill="#58595B" d="M177.6,48.5c-10,0-17.4-7.8-17.4-17.7c0-9.8,7.3-17.8,17.7-17.8c6.3,0,10.1,2.2,13.4,5.3l-3.9,4.5
			c-2.7-2.5-5.7-4.3-9.6-4.3c-6.6,0-11.3,5.4-11.3,12.1S171.3,43,177.8,43c4.2,0,6.9-1.7,9.8-4.5l3.9,3.9
			C188,46.2,184,48.5,177.6,48.5z"/>
		<path fill="#58595B" d="M177.6,48.7c-4.8,0-9.3-1.8-12.6-5.2c-3.2-3.3-5-7.8-5-12.6c0-10.2,7.7-17.9,17.8-17.9
			c6.9,0,10.7,2.7,13.5,5.4l0.1,0.1l-4,4.6l-0.1-0.1c-3.1-2.9-6.1-4.2-9.5-4.2c-6.4,0-11.2,5.2-11.2,12c0,6.9,4.8,12.1,11.2,12.1
			c4.2,0,6.8-1.7,9.8-4.4l0.1-0.1l4,4.1l-0.1,0.1C187.4,46.9,183.4,48.7,177.6,48.7z M177.9,13.2c-10,0-17.5,7.6-17.5,17.6
			c0,4.8,1.8,9.2,4.9,12.5c3.2,3.3,7.6,5.1,12.4,5.1c5.7,0,9.6-1.7,13.7-5.9l-3.7-3.7c-2.9,2.7-5.6,4.4-9.8,4.4
			c-6.5,0-11.4-5.3-11.4-12.4c0-7,4.9-12.3,11.4-12.3c3.5,0,6.4,1.3,9.6,4.2l3.7-4.3C188.4,15.8,184.6,13.2,177.9,13.2z"/>
	</g>
	<g>
		<path fill="#58595B" d="M202.9,33.5V48h-6V13.7h6v14.2h16.4V13.7h6V48h-6V33.5H202.9z"/>
		<path fill="#58595B" d="M225.4,48.1h-6.3V33.6H203v14.4h-6.3V13.6h6.3v14.2h16.1V13.6h6.3V48.1z M219.4,47.8h5.8v-34h-5.8v14.2
			h-16.6V13.8H197v34h5.8V33.4h16.6V47.8z"/>
	</g>
	<g>
		<path fill="#58595B" d="M256,13.7h5.9V48h-5L238,23.6V48h-5.9V13.7h5.6L256,37.4V13.7z"/>
		<path fill="#58595B" d="M262.1,48.1h-5.2l0,0l-18.7-24.1v24.1H232V13.6h5.8l0,0L255.9,37V13.6h6.2V48.1z M257,47.8h4.9v-34h-5.7
			v23.9l-0.2-0.3l-18.3-23.6h-5.4v34h5.7V23.2l0.2,0.3L257,47.8z"/>
	</g>
	<g>
		<path fill="#58595B" d="M276.4,13.7V48h-6V13.7H276.4z"/>
		<path fill="#58595B" d="M276.5,48.1h-6.3V13.6h6.3V48.1z M270.5,47.8h5.8v-34h-5.8V47.8z"/>
	</g>
	<path fill="#58595B" d="M318.5,48.2H310l-3.3-7.9h-14l-3.4,7.9H281l15.3-35.1h6.8L318.5,48.2z M311.4,45.9h3.6l-13.4-30.7h-3.9
		l-13.4,30.7h3.4l3.4-7.9h16.9L311.4,45.9z M307,35.2h-14.6l7.3-17L307,35.2z M295.7,33h7.9l-3.9-9.1L295.7,33z"/>
	<path fill="#58595B" d="M351.2,48.2h-9.5l-8-11.4h-5.5v11.4h-8V13.3h15.7c8.2,0,13.2,4.4,13.2,11.5c0,5-2.6,8.7-7.1,10.5
		L351.2,48.2z M342.9,45.9h4L338.4,34l1.5-0.4c4.5-1.2,7-4.4,7-8.9c0-5.8-4.1-9.2-11-9.2h-13.4v30.4h3.5V34.6h8.9L342.9,45.9z
		 M335.5,31.7H326V18.5h9.5c4.9,0,7.9,2.5,7.9,6.6C343.3,29,340.2,31.7,335.5,31.7z M328.2,29.5h7.3c3.5,0,5.6-1.7,5.6-4.4
		c0-2.9-1.9-4.3-5.6-4.3h-7.2V29.5z"/>
	<path fill="#58595B" d="M369.8,48.2h-8V20.8h-10.4v-7.5h28.7v7.5h-10.4V48.2z M364,45.9h3.6V18.6h10.4v-3.1h-24.3v3.1H364V45.9z"/>
</g>
<g>
	<path fill="#0069A2" d="M31.7,31.1c0-9.4,5-17.6,12.5-22.2c-4-2.4-8.6-3.9-13.6-3.9C16.2,5.1,4.5,16.8,4.5,31.1
		s11.7,26.1,26.1,26.1c5,0,9.6-1.4,13.6-3.9C36.7,48.8,31.7,40.6,31.7,31.1z"/>
	<path fill="#34B3E5" d="M57.8,5.1c-5,0-9.6,1.4-13.6,3.9c7.5,4.6,12.5,12.8,12.5,22.2s-5,17.6-12.5,22.2c4,2.4,8.6,3.9,13.6,3.9
		c14.4,0,26.1-11.7,26.1-26.1S72.2,5.1,57.8,5.1z"/>
	<path fill="#048CC2" d="M56.6,31.1c0-9.4-5-17.6-12.5-22.2c-7.5,4.6-12.5,12.8-12.5,22.2s5,17.6,12.5,22.2
		C51.6,48.8,56.6,40.6,56.6,31.1z"/>
</g>
</svg>
